# xmcd
#
# Track frame offsets: 
#        150
#        17656
#        37948
#        59076
#        81553
#        101550
#        123725
#        143965
#        164238
#        182532
#        208365
#        231711
#        251367
#        274534
#        294527
#        319189
#
# Disc length: 4578 seconds
#
# Revision: 0
# Processed by: cddbd v1.5.2PL0 Copyright (c) Steve Scherf et al.
# Submitted via: ExactAudioCopy v1.0b3
#
DISCID=fd11e010
DTITLE=群星 - 试机宝典31号
DYEAR=2013
DGENRE=stereo
TTITLE0=红尘永相伴
TTITLE1=会哭的人不一定有泪
TTITLE2=分手了别来打扰我
TTITLE3=当爱情经过的时候
TTITLE4=你会爱我到什么时候
TTITLE5=梦中情人
TTITLE6=把爱深藏
TTITLE7=其实我真的爱你
TTITLE8=告诉我亲爱的你
TTITLE9=谁在窗外流泪
TTITLE10=我们的歌谣
TTITLE11=爱随你远走
TTITLE12=昨夜
TTITLE13=关于你们的故事
TTITLE14=情歌好听却难唱
TTITLE15=北京北京[全新版]
EXTD=
EXTT0=
EXTT1=
EXTT2=
EXTT3=
EXTT4=
EXTT5=
EXTT6=
EXTT7=
EXTT8=
EXTT9=
EXTT10=
EXTT11=
EXTT12=
EXTT13=
EXTT14=
EXTT15=
PLAYORDER=
